<svg xmlns="http://www.w3.org/2000/svg" xmlns:xlink="http://www.w3.org/1999/xlink" width="174" height="49.372" viewBox="0 0 174 49.372">
  <defs>
    <clipPath id="clip-path">
      <rect id="Rectangle_253" data-name="Rectangle 253" width="174" height="49.372" fill="none"/>
    </clipPath>
  </defs>
  <g id="Group_46" data-name="Group 46" transform="translate(0 0)">
    <g id="Group_39" data-name="Group 39" transform="translate(0 0)">
      <g id="Group_38" data-name="Group 38" transform="translate(0 0)" clip-path="url(#clip-path)">
        <path id="Path_24" data-name="Path 24" d="M.184,36.169H1.71V30.281H9.028V28.89H1.71V24.063H9.894V22.655H.184Zm13.765,0h1.526V22.655H13.949Zm6.449,0h1.487V25.086l8.727,11.083h1.217V22.655H30.34V33.486L21.827,22.655H20.4Zm15.058,0H37.02l1.6-3.573h7.357l1.583,3.573h1.643l-6.16-13.612H41.616Zm3.768-4.943,3.087-6.891,3.07,6.891Zm13.609,4.943h1.485V25.086l8.727,11.083h1.217V22.655H62.776V33.486L54.261,22.655H52.832Zm22.4.232a7.041,7.041,0,0,0,5.406-2.374l-1.007-.986a5.866,5.866,0,0,1-4.361,1.952,5.334,5.334,0,0,1-5.232-5.583v-.038a5.3,5.3,0,0,1,5.232-5.542,5.873,5.873,0,0,1,4.246,1.853l1.043-1.117a7.027,7.027,0,0,0-5.269-2.142,6.808,6.808,0,0,0-6.838,6.986v.041a6.742,6.742,0,0,0,6.779,6.95m9.033-.232h9.866V34.779h-8.34V30.05h7.374V28.66H85.789V24.046h8.244V22.655h-9.77Z" transform="translate(0.106 12.97)" fill="#fff"/>
      </g>
    </g>
    <path id="Path_25" data-name="Path 25" d="M16.167,0V15.393L0,0V28.163H4.917V12.752L21.085,28.163V0Z" transform="translate(0 0)" fill="#fff"/>
    <g id="Group_41" data-name="Group 41" transform="translate(0 0)">
      <g id="Group_40" data-name="Group 40" transform="translate(0 0)" clip-path="url(#clip-path)">
        <path id="Path_26" data-name="Path 26" d="M35.8,15.409A10.218,10.218,0,0,0,25.286,5.034a10.212,10.212,0,0,0-10.52,10.34v.035a10.227,10.227,0,0,0,10.52,10.409A10.225,10.225,0,0,0,35.8,15.409m-4.724,0a5.816,5.816,0,1,1-11.626.035v-.035a5.816,5.816,0,1,1,11.626,0" transform="translate(8.54 2.912)" fill="#fff"/>
        <path id="Path_27" data-name="Path 27" d="M29,25.26h4.686V14.672c0-3.4,1.683-4.939,4.972-4.939h.216V5.011A5.614,5.614,0,0,0,33.438,8.2V5.62H29Z" transform="translate(16.773 2.898)" fill="#fff"/>
      </g>
    </g>
    <path id="Path_28" data-name="Path 28" d="M36.266,27.543h4.687V11.516h4.6V7.148h-4.6V1.067H36.266Z" transform="translate(20.975 0.618)" fill="#fff"/>
    <g id="Group_43" data-name="Group 43" transform="translate(0 0)">
      <g id="Group_42" data-name="Group 42" transform="translate(0 0)" clip-path="url(#clip-path)">
        <path id="Path_29" data-name="Path 29" d="M43.337,27.54h4.686V16.558a5.682,5.682,0,0,1,.824-3.147,4.022,4.022,0,0,1,3.613-1.717,3.934,3.934,0,0,1,3.4,1.537,6.548,6.548,0,0,1,.893,3.722V27.54h4.685v-10.8c0-2.649-.358-4.975-1.537-6.692-1.144-1.717-3.042-2.754-6.081-2.754a6.24,6.24,0,0,0-5.8,2.934V1.068H43.337Z" transform="translate(25.065 0.618)" fill="#fff"/>
        <path id="Path_30" data-name="Path 30" d="M56.086,25.26h4.686V14.672c0-3.4,1.683-4.939,4.972-4.939h.216V5.011A5.613,5.613,0,0,0,60.523,8.2V5.62H56.086Z" transform="translate(32.439 2.898)" fill="#fff"/>
      </g>
    </g>
    <path id="Path_31" data-name="Path 31" d="M63.815,5.254H68.5V1.068Z" transform="translate(36.908 0.618)" fill="#9bd5e6"/>
    <rect id="Rectangle_256" data-name="Rectangle 256" width="4.687" height="20.252" transform="translate(100.722 7.907)" fill="#fff"/>
    <g id="Group_45" data-name="Group 45" transform="translate(0 0)">
      <g id="Group_44" data-name="Group 44" transform="translate(0 0)" clip-path="url(#clip-path)">
        <path id="Path_32" data-name="Path 32" d="M88.986,27.54V1.068H84.3v9.371A7.654,7.654,0,0,0,77.72,7.292c-5.332,0-9.876,4.044-9.876,10.413,0,5.723,3.9,10.444,9.945,10.444,4.006,0,5.867-1.967,6.725-3.435V27.54Zm-4.4-9.944A5.757,5.757,0,0,1,82.9,21.959a6.131,6.131,0,0,1-4.364,1.788A5.853,5.853,0,0,1,72.53,17.7v-.038a5.872,5.872,0,0,1,6.048-6.01,5.969,5.969,0,0,1,4.254,1.717A5.782,5.782,0,0,1,84.587,17.6" transform="translate(39.239 0.618)" fill="#fff"/>
        <path id="Path_33" data-name="Path 33" d="M103.72,22.922V5.607H99V8.255a7.228,7.228,0,0,0-6.367-3.221c-5.437,0-10.016,4.08-10.016,10.482,0,6.048,4.364,10.34,10.016,10.34A7,7,0,0,0,99,22.35V24a5.68,5.68,0,0,1-5.831,5.9,5.59,5.59,0,0,1-2.574-.68,4.4,4.4,0,0,1-2.039-2H83.114c.715,3.042,3.649,6.689,9.765,6.689a11.247,11.247,0,0,0,9.016-4.041c1.217-1.646,1.825-3.72,1.825-6.942m-4.686-7.333a6.017,6.017,0,0,1-1.683,4.186,5.6,5.6,0,0,1-4.186,1.683A5.805,5.805,0,0,1,87.3,15.409v-.033A5.83,5.83,0,0,1,93.165,9.4,5.384,5.384,0,0,1,97.6,11.368a6.622,6.622,0,0,1,1.432,4.221" transform="translate(47.781 2.912)" fill="#fff"/>
        <path id="Path_34" data-name="Path 34" d="M114.81,8.018a10.029,10.029,0,0,0-7.333-3.008A10.368,10.368,0,0,0,97.175,15.5,10.332,10.332,0,0,0,107.55,25.87a9.74,9.74,0,0,0,5.616-1.717,11.076,11.076,0,0,0,3.97-4.937h-4.828a5.059,5.059,0,0,1-4.723,2.645A5.4,5.4,0,0,1,101.894,17h15.812a10.594,10.594,0,0,0-2.9-8.978m-1.717,5.4H101.967a5.313,5.313,0,0,1,5.545-4.435,5.41,5.41,0,0,1,5.581,4.435" transform="translate(56.204 2.898)" fill="#fff"/>
      </g>
    </g>
  </g>
</svg>
