<?xml version="1.0" encoding="UTF-8"?> <svg xmlns="http://www.w3.org/2000/svg" id="Layer_2" viewBox="0 0 713.42 280.9"><defs><style> .cls-1 { fill: #fff; } .cls-2 { fill: none; stroke: #fff; stroke-miterlimit: 10; stroke-width: 4.02px; } .cls-3 { fill: #fec526; } </style></defs><g id="Layer_1-2" data-name="Layer_1"><g id="Web_1920_1"><g id="Shawbrook_Logo_Pink_RGB"><path id="Path_1" class="cls-1" d="M400.9,251.53h4.89c.34,2.66,2.27,4.05,5.63,4.05s5.28-1.53,5.28-3.8c0-6.31-15.1-.99-15.1-11.5,0-4.34,3.85-7.55,9.77-7.55,5.18,0,9.23,2.81,9.62,7.75h-4.74c-.3-2.17-1.97-3.6-5.08-3.6-2.91,0-4.74,1.38-4.74,3.31,0,5.72,15.3.39,15.3,11.35,0,4.89-4,8.29-10.46,8.29-6.57,0-10.02-3.31-10.36-8.29Z"></path><path id="Path_2" class="cls-1" d="M426.08,222.17h5.13v14.66h.34c1.09-2.12,3.75-4.1,7.6-4.1,5.87,0,9.52,4.29,9.52,9.87v16.58h-5.18v-15.59c.14-3.18-2.33-5.88-5.51-6.02-.12,0-.24,0-.36,0-3.45-.07-6.3,2.68-6.37,6.13,0,.06,0,.13,0,.19v15.3h-5.18v-37.01Z"></path><path id="Path_3" class="cls-1" d="M452.82,246.35c0-7.99,5.08-13.62,12.29-13.62,3.38-.07,6.56,1.58,8.44,4.39h.34v-3.75h5.18v25.81h-5.08v-3.65h-.3c-1.89,2.74-5.02,4.35-8.34,4.29-7.4,0-12.53-5.48-12.53-13.47ZM474.04,246.3c0-5.58-3.45-8.83-7.99-8.83s-7.95,3.65-7.95,8.83,3.26,8.83,7.99,8.83,7.94-3.95,7.94-8.83h0Z"></path><path id="Path_4" class="cls-1" d="M482.38,233.37h5.48l5.28,19.69h.34l6.17-19.69h5.48l6.12,19.69h.34l5.28-19.69h5.53l-7.65,25.81h-6.22l-6.02-19.15h-.3l-6.07,19.15h-6.17l-7.6-25.81Z"></path><path id="Path_5" class="cls-1" d="M531.73,255.53h-.34v3.65h-5.03v-37.01h5.18v14.95h.3c1.9-2.81,5.1-4.46,8.49-4.39,7.16,0,12.24,5.63,12.24,13.62s-5.08,13.47-12.53,13.47c-3.31.06-6.43-1.55-8.29-4.29h0ZM547.28,246.3c0-5.18-3.21-8.83-7.9-8.83s-7.99,3.26-7.99,8.83c0,4.89,2.96,8.83,7.9,8.83s7.99-3.45,7.99-8.83Z"></path><path id="Path_6" class="cls-1" d="M556.73,233.37h4.98v4.49h.34c1.17-2.77,3.9-4.56,6.91-4.54h2.27v5.03h-2.42c-4.39,0-6.91,3.31-6.91,8.09v12.73h-5.18v-25.81Z"></path><path id="Path_7" class="cls-1" d="M572.97,246.3c0-7.75,5.72-13.57,13.67-13.57s13.57,5.87,13.57,13.57-5.72,13.52-13.62,13.52c-7.95,0-13.62-5.77-13.62-13.52ZM594.93,246.3c0-5.13-3.46-8.83-8.34-8.83s-8.34,3.75-8.34,8.83,3.5,8.83,8.34,8.83,8.34-3.75,8.34-8.83Z"></path><path id="Path_8" class="cls-1" d="M603.17,246.3c0-7.75,5.72-13.57,13.67-13.57s13.57,5.87,13.57,13.57-5.72,13.52-13.62,13.52c-7.94,0-13.62-5.77-13.62-13.52ZM625.13,246.3c0-5.13-3.45-8.83-8.34-8.83s-8.34,3.75-8.34,8.83,3.5,8.83,8.34,8.83,8.34-3.75,8.34-8.83Z"></path><path id="Path_9" class="cls-1" d="M651.05,259.18l-7.3-12.19-4,4.39v7.8h-5.18v-37.01h5.18v22.21h.3l9.77-11h6.46l-8.98,9.77,9.62,16.04h-5.87Z"></path><path id="Path_10" class="cls-1" d="M358.04,280.9h-23.35v-39.88h11.87c-6.82-4.27-14.24-11.25-12.65-20.95,2.25-13.79,16.45-13.79,23.27-13.79h23.3v39.88h-11.77c6.8,4.27,14.2,11.26,12.62,20.95-2.25,13.79-16.47,13.79-23.3,13.79ZM339.83,275.76h18.21c12.16,0,17.1-2.57,18.23-9.49,1.91-11.7-16.19-19.03-19.07-20.12h-17.37v29.61ZM358.1,241.02h17.25v-29.61h-18.17c-12.14,0-17.08,2.57-18.21,9.49-1.92,11.74,16.24,19.04,19.13,20.12h0Z"></path></g></g><g id="Artwork_5"><path class="cls-1" d="M114.24,163.72h.7v7.71h-.7c-.19-.88-.54-1.65-1.05-2.32-1.94,2.19-4.41,3.28-7.42,3.28-3.18,0-5.79-1.01-7.8-3.02-2.02-2.02-3.03-4.68-3.03-7.99,0-2.18.47-4.22,1.4-6.15.93-1.92,2.23-3.35,3.9-4.28,1.67-.93,3.5-1.4,5.49-1.4,1.65,0,3.14.34,4.48,1.02,1.34.68,2.34,1.43,3,2.25.46-.92.74-1.87.84-2.86h.71l.2,8.35h-.7c-.49-2.97-1.48-5.03-2.98-6.19-1.5-1.16-3.19-1.74-5.07-1.74-2.31,0-4.14.94-5.5,2.81-1.36,1.87-2.04,4.55-2.04,8.04,0,3.3.74,5.83,2.22,7.59,1.48,1.76,3.33,2.64,5.54,2.64,1.18,0,2.39-.29,3.62-.86,1.23-.57,2.21-1.54,2.93-2.92.72-1.37,1.14-2.69,1.27-3.97"></path><path class="cls-1" d="M152,170.67c-.38-.3-.68-.71-.91-1.22l-1.01-2.31-7.37-17.48h-.63l-6.4,15.28c-.46,1.1-.72,1.73-.79,1.89-.67,1.72-1.25,2.85-1.72,3.38-.48.53-1.2.88-2.17,1.03v.75h6.54v-.75c-.71,0-1.28-.17-1.73-.51-.45-.34-.68-.84-.68-1.5,0-.62.42-1.94,1.27-3.96l.58-1.4h8.37l1.69,4.07c.5,1.18.75,1.89.75,2.13,0,.46-.19.78-.56.93-.37.16-1.09.23-2.15.23v.75h8.64v-.75c-.76-.07-1.34-.26-1.72-.56M137.29,163.13l3.89-9.39,3.88,9.39h-7.77Z"></path><path class="cls-1" d="M185.32,152.17c-.78-.91-1.79-1.54-3.02-1.9-1.23-.36-2.98-.54-5.25-.54-1.24,0-2.96.04-5.16.12l-2.76.11v.75h.4c1.12,0,1.84.1,2.18.29.33.19.55.55.65,1.06.1.51.15,1.64.15,3.39v10.8c0,1.84-.05,3.01-.15,3.51-.1.5-.33.88-.69,1.11-.36.24-1.01.36-1.96.36h-.58v.75h10.08v-.75h-.73c-.98,0-1.66-.13-2.01-.39-.36-.26-.58-.66-.66-1.19-.08-.54-.12-1.67-.12-3.4v-4.63h2.42c2.52,0,4.28-.24,5.28-.72,1-.48,1.77-1.18,2.31-2.1.53-.92.8-1.98.8-3.18,0-1.39-.39-2.54-1.18-3.45M182.28,158.82c-.52.81-1.17,1.35-1.95,1.6s-1.8.38-3.07.38h-1.58v-10.23c.39-.04.95-.06,1.69-.06,2,0,3.45.43,4.35,1.28.89.85,1.34,2.19,1.34,4.02,0,1.19-.26,2.2-.78,3.01"></path><path class="cls-1" d="M201.06,150.71v-.75h10.07v.75h-.47c-1.08,0-1.79.09-2.13.27-.34.18-.56.51-.67,1-.11.49-.17,1.65-.17,3.47v10.8c0,1.73.04,2.87.12,3.4.08.54.3.93.65,1.19.35.26,1.03.39,2.02.39h.65v.75h-10.07v-.75h.65c.94,0,1.59-.12,1.96-.36.36-.24.59-.61.69-1.11.1-.5.14-1.68.14-3.51v-10.8c0-1.75-.05-2.88-.14-3.39-.1-.51-.32-.86-.65-1.06-.34-.2-1.06-.29-2.18-.29h-.47Z"></path><path class="cls-1" d="M227.65,155.25h-.75l.11-5.29h21.38l.11,5.29h-.7c-.25-1.45-.59-2.5-1.02-3.14-.43-.65-.9-1.04-1.4-1.19-.5-.15-1.35-.22-2.55-.22h-3.54v15.54c0,1.72.04,2.85.12,3.39.08.54.3.94.66,1.2.36.26,1.03.39,2.02.39h1.07v.75h-10.99v-.75h1.14c.94,0,1.59-.12,1.96-.36.36-.24.6-.61.7-1.11.1-.5.16-1.67.16-3.51v-15.54h-3.27c-1.42,0-2.37.07-2.86.2-.49.14-.94.54-1.37,1.22-.43.68-.75,1.72-.98,3.12"></path><path class="cls-1" d="M282.17,170.67c-.38-.3-.68-.71-.91-1.22l-1.01-2.31-7.37-17.48h-.63l-6.4,15.28c-.46,1.1-.72,1.73-.79,1.89-.67,1.72-1.24,2.85-1.72,3.38s-1.2.88-2.17,1.03v.75h6.54v-.75c-.71,0-1.28-.17-1.73-.51-.45-.34-.68-.84-.68-1.5,0-.62.42-1.94,1.27-3.96l.58-1.4h8.37l1.69,4.07c.5,1.18.75,1.89.75,2.13,0,.46-.19.78-.56.93-.37.16-1.09.23-2.15.23v.75h8.64v-.75c-.76-.07-1.34-.26-1.72-.56M267.46,163.13l3.89-9.39,3.88,9.39h-7.77Z"></path><path class="cls-1" d="M318.09,165.5l-.16,6.48h-18.69v-.75h.65c.94,0,1.59-.12,1.96-.36.36-.24.6-.61.7-1.11.1-.5.15-1.68.15-3.51v-10.8c0-1.75-.05-2.89-.15-3.39-.1-.51-.32-.86-.65-1.06-.33-.19-1.05-.29-2.17-.29h-.49v-.75h10.59v.75h-.98c-1.08,0-1.79.09-2.13.27-.34.18-.56.51-.67,1-.12.49-.17,1.65-.17,3.48v11.53c0,1.59.04,2.59.13,2.99.09.4.32.71.71.93.38.22,1.21.33,2.47.33h1.67c1.35,0,2.35-.12,3.01-.36.66-.24,1.28-.75,1.87-1.55.59-.8,1.13-2.07,1.61-3.82h.75Z"></path><path class="cls-1" d="M318.09,127.9h-33.61c-5.95-4.17-15.07-15.1-27.35-32.78-3.93-5.65-8.01-11.06-12.25-16.25-4.24-5.19-7.15-8.35-8.75-9.49-1.6-1.14-4.08-1.7-7.46-1.7h-4.97v27.72c0,9.82.23,16.25.69,19.29.46,3.04,1.69,5.29,3.68,6.77,2,1.47,5.82,2.21,11.47,2.21h5.98v4.23h-59.76v-4.23h4.05c5.34,0,9.04-.68,11.1-2.03,2.06-1.35,3.36-3.45,3.91-6.31.55-2.86.83-9.5.83-19.94v-61.23c0-9.95-.28-16.36-.83-19.25-.55-2.88-1.78-4.88-3.68-5.99-1.9-1.1-6.02-1.66-12.34-1.66h-2.12V3.04l17.87-.92c11.91-.55,21.36-.83,28.36-.83,11.91,0,21.59,1.11,29.05,3.32,7.46,2.21,13.49,5.83,18.1,10.87,4.6,5.04,6.91,11.05,6.91,18.05,0,8.16-3.01,15.13-9.03,20.9-6.02,5.77-14.86,9.36-26.52,10.78,5.22,2.51,13.63,11.6,25.23,27.25,9.45,12.71,16.88,21.03,22.28,24.96,5.4,3.93,11.79,6.02,19.15,6.26v4.23ZM223.71,63.45c4.61-.12,9.36-.31,14.27-.55,4.91-.24,9.17-.92,12.8-2.03,3.62-1.1,6.55-2.72,8.79-4.84,2.24-2.12,4-4.89,5.3-8.33,1.29-3.44,1.93-7.67,1.93-12.71,0-8.78-2.2-15.81-6.58-21.09-4.39-5.28-13.95-7.92-28.69-7.92-2.27,0-4.88.13-7.83.37v57.09Z"></path><path class="cls-1" d="M186.47,71.2c-6.88-6.02-17.4-9.56-31.59-10.6,11.79-1.72,20.61-5.03,26.48-9.93,5.86-4.9,8.79-11.4,8.79-19.49,0-19.61-17.08-29.42-51.25-29.42l-23.41.73-20.56.55h-58.01v4.24h2.95c6.32,0,10.42.55,12.29,1.66,1.87,1.1,3.1,3.1,3.68,5.98.58,2.89.88,9.3.88,19.25v81.59c0,13.93-.49,23.93-1.47,29.97-.98,6.05-3.87,11.3-8.65,15.75-4.79,4.45-10.68,6.68-17.68,6.68-3.44,0-6.32-.55-8.66-1.66-2.33-1.1-3.5-2.64-3.5-4.6,0-.74.34-1.84,1.01-3.31.73-1.66,1.11-3.25,1.11-4.79,0-2.58-.91-4.76-2.72-6.54-1.81-1.78-4.07-2.67-6.77-2.67s-4.87.98-6.68,2.95c-1.81,1.96-2.72,4.39-2.72,7.27,0,4.79,2.55,8.92,7.65,12.38,5.1,3.47,12.37,5.2,21.82,5.2,8.41,0,15.79-1.41,22.14-4.23,6.35-2.82,11.43-6.86,15.24-12.11,3.8-5.25,6.12-10.63,6.95-16.16.83-5.53,1.24-13.57,1.24-24.13V34.17c0-10.37.31-16.94.92-19.7.61-2.76,1.87-4.65,3.77-5.66,1.9-1.01,5.92-1.52,12.06-1.52h5.54c6.35,0,10.47.55,12.35,1.66,1.88,1.1,3.11,3.13,3.7,6.08.59,2.95.88,9.48.88,19.61v60.77c0,10.44-.27,17.08-.83,19.94-.55,2.85-1.86,4.96-3.91,6.31-2.06,1.35-5.75,2.03-11.1,2.03h-3.5v4.24h47.7c12.22,0,21.96-.88,29.24-2.63,7.27-1.75,13.24-5.47,17.91-11.16,4.66-5.69,7-12.46,7-20.33,0-9.03-3.44-16.57-10.31-22.59M132.32,6.45c2.52-.18,4.98-.27,7.37-.27,9.21,0,15.71.96,19.52,2.9,3.81,1.93,6.66,4.68,8.56,8.24,1.9,3.56,2.85,8.6,2.85,15.1,0,9.33-2.43,16.08-7.28,20.26-4.85,4.18-13.9,6.26-27.16,6.26-1.05,0-2.33-.03-3.87-.09V6.45ZM169.62,115.94c-4.91,5.03-12.28,7.55-22.1,7.55-5.52,0-9.22-.83-11.1-2.49-1.87-1.66-3.02-4.08-3.45-7.27-.43-3.19-.65-10.71-.65-22.56v-27.81c2.46-.12,4.79-.18,7-.18,14,0,23.77,2.44,29.33,7.32,5.55,4.88,8.33,12.48,8.33,22.79s-2.46,17.62-7.37,22.65"></path></g><path class="cls-1" d="M431.23,0v10.65h-22.23v11.5h16.64v10.34h-16.64v22.08h-13.29V0h35.53Z"></path><path class="cls-1" d="M448.95,0v32.65c0,3.26.8,5.78,2.41,7.54,1.61,1.76,3.96,2.64,7.07,2.64s5.49-.88,7.15-2.64c1.66-1.76,2.49-4.28,2.49-7.54V0h13.29v32.57c0,4.87-1.04,8.99-3.11,12.36-2.07,3.37-4.86,5.91-8.36,7.62-3.5,1.71-7.4,2.56-11.7,2.56s-8.15-.84-11.54-2.53c-3.39-1.68-6.08-4.22-8.05-7.62-1.97-3.39-2.95-7.53-2.95-12.4V0h13.29Z"></path><path class="cls-1" d="M537.18,54.57h-13.29l-22.23-33.66v33.66h-13.29V0h13.29l22.23,33.82V0h13.29v54.57Z"></path><path class="cls-1" d="M580.02,3.42c4.3,2.28,7.63,5.48,9.99,9.6,2.36,4.12,3.54,8.88,3.54,14.26s-1.18,10.08-3.54,14.23c-2.36,4.15-5.7,7.36-10.03,9.64-4.33,2.28-9.34,3.42-15.04,3.42h-20.45V0h20.45c5.75,0,10.78,1.14,15.08,3.42ZM575.82,38.95c2.8-2.75,4.2-6.63,4.2-11.66s-1.4-8.94-4.2-11.74c-2.8-2.8-6.71-4.2-11.74-4.2h-6.3v31.72h6.3c5.03,0,8.94-1.37,11.74-4.12Z"></path><path class="cls-1" d="M446.78,59l-18.89,36.54v18.03h-13.29v-18.03l-18.89-36.54h15.08l10.57,22.85,10.49-22.85h14.93Z"></path><path class="cls-3" d="M457.23,110.54c-4.28-2.38-7.67-5.71-10.18-9.99-2.51-4.28-3.77-9.08-3.77-14.42s1.26-10.13,3.77-14.38c2.51-4.25,5.91-7.57,10.18-9.95,4.28-2.38,8.98-3.58,14.11-3.58s9.83,1.19,14.11,3.58c4.28,2.38,7.64,5.7,10.11,9.95,2.46,4.25,3.69,9.04,3.69,14.38s-1.24,10.14-3.73,14.42c-2.49,4.28-5.86,7.61-10.11,9.99-4.25,2.38-8.94,3.58-14.07,3.58s-9.83-1.19-14.11-3.58ZM481.8,97.63c2.62-2.9,3.92-6.74,3.92-11.5s-1.31-8.67-3.92-11.54c-2.62-2.88-6.1-4.31-10.46-4.31s-7.92,1.43-10.53,4.28c-2.62,2.85-3.93,6.71-3.93,11.58s1.31,8.67,3.93,11.54c2.62,2.88,6.13,4.31,10.53,4.31s7.84-1.45,10.46-4.35Z"></path><path class="cls-3" d="M517.36,59v32.65c0,3.26.8,5.78,2.41,7.54,1.61,1.76,3.96,2.64,7.07,2.64s5.49-.88,7.15-2.64c1.66-1.76,2.49-4.28,2.49-7.54v-32.65h13.29v32.57c0,4.87-1.04,8.99-3.11,12.36-2.07,3.37-4.86,5.91-8.36,7.62-3.5,1.71-7.4,2.56-11.7,2.56s-8.15-.84-11.54-2.53c-3.39-1.68-6.08-4.22-8.05-7.62-1.97-3.39-2.95-7.53-2.95-12.4v-32.57h13.29Z"></path><path class="cls-3" d="M584.6,113.57l-11.35-20.6h-3.19v20.6h-13.29v-54.57h22.31c4.3,0,7.97.75,11,2.25,3.03,1.5,5.3,3.56,6.8,6.18,1.5,2.62,2.25,5.53,2.25,8.75,0,3.63-1.02,6.87-3.07,9.72-2.05,2.85-5.07,4.87-9.06,6.06l12.59,21.61h-15ZM570.07,83.56h8.24c2.44,0,4.26-.59,5.48-1.79,1.22-1.19,1.83-2.88,1.83-5.05s-.61-3.7-1.83-4.9c-1.22-1.19-3.04-1.79-5.48-1.79h-8.24v13.53Z"></path><path class="cls-1" d="M435.12,144.24c-1.45,2.62-3.68,4.73-6.68,6.34-3.01,1.61-6.74,2.41-11.19,2.41h-8.24v19.59h-13.29v-54.57h21.53c4.35,0,8.03.75,11.04,2.25,3.01,1.5,5.26,3.58,6.76,6.22,1.5,2.64,2.25,5.67,2.25,9.1,0,3.16-.73,6.05-2.18,8.67ZM421.9,140.62c1.24-1.19,1.87-2.88,1.87-5.05s-.62-3.86-1.87-5.05c-1.24-1.19-3.14-1.79-5.67-1.79h-7.23v13.68h7.23c2.54,0,4.43-.6,5.67-1.79Z"></path><path class="cls-1" d="M473.3,162.93h-20.37l-3.27,9.64h-13.91l19.74-54.57h15.39l19.74,54.57h-14.07l-3.27-9.64ZM469.88,152.67l-6.76-19.98-6.68,19.98h13.45Z"></path><path class="cls-1" d="M503.3,171.17c-3.16-1.29-5.69-3.21-7.58-5.75-1.89-2.54-2.89-5.6-2.99-9.17h14.15c.21,2.02.91,3.56,2.1,4.63,1.19,1.06,2.75,1.59,4.66,1.59s3.52-.45,4.66-1.36c1.14-.91,1.71-2.16,1.71-3.77,0-1.35-.45-2.46-1.36-3.34-.91-.88-2.02-1.61-3.34-2.18-1.32-.57-3.2-1.22-5.64-1.94-3.52-1.09-6.4-2.18-8.63-3.27-2.23-1.09-4.15-2.69-5.75-4.82-1.61-2.12-2.41-4.9-2.41-8.32,0-5.08,1.84-9.06,5.52-11.93,3.68-2.88,8.47-4.31,14.38-4.31s10.86,1.44,14.54,4.31c3.68,2.88,5.65,6.88,5.91,12.01h-14.38c-.1-1.76-.75-3.15-1.94-4.16-1.19-1.01-2.72-1.52-4.59-1.52-1.61,0-2.9.43-3.89,1.28-.99.85-1.48,2.09-1.48,3.69,0,1.76.83,3.14,2.49,4.12,1.66.98,4.25,2.05,7.77,3.19,3.52,1.19,6.39,2.33,8.59,3.42,2.2,1.09,4.11,2.67,5.71,4.74,1.61,2.07,2.41,4.74,2.41,8.01s-.79,5.93-2.37,8.47c-1.58,2.54-3.87,4.56-6.88,6.06-3.01,1.5-6.56,2.25-10.65,2.25s-7.57-.65-10.73-1.94Z"></path><path class="cls-1" d="M548.78,171.17c-3.16-1.29-5.69-3.21-7.58-5.75-1.89-2.54-2.89-5.6-2.99-9.17h14.15c.21,2.02.91,3.56,2.1,4.63,1.19,1.06,2.75,1.59,4.66,1.59s3.52-.45,4.66-1.36c1.14-.91,1.71-2.16,1.71-3.77,0-1.35-.45-2.46-1.36-3.34-.91-.88-2.02-1.61-3.34-2.18-1.32-.57-3.2-1.22-5.64-1.94-3.52-1.09-6.4-2.18-8.63-3.27-2.23-1.09-4.15-2.69-5.75-4.82-1.61-2.12-2.41-4.9-2.41-8.32,0-5.08,1.84-9.06,5.52-11.93,3.68-2.88,8.47-4.31,14.38-4.31s10.86,1.44,14.54,4.31c3.68,2.88,5.65,6.88,5.91,12.01h-14.38c-.1-1.76-.75-3.15-1.94-4.16-1.19-1.01-2.72-1.52-4.59-1.52-1.61,0-2.9.43-3.89,1.28-.99.85-1.48,2.09-1.48,3.69,0,1.76.83,3.14,2.49,4.12,1.66.98,4.25,2.05,7.77,3.19,3.52,1.19,6.39,2.33,8.59,3.42,2.2,1.09,4.11,2.67,5.71,4.74,1.61,2.07,2.41,4.74,2.41,8.01s-.79,5.93-2.37,8.47c-1.58,2.54-3.87,4.56-6.88,6.06-3.01,1.5-6.56,2.25-10.65,2.25s-7.57-.65-10.73-1.94Z"></path><path class="cls-1" d="M598.53,118v54.57h-13.29v-54.57h13.29Z"></path><path class="cls-1" d="M617.53,169.54c-4.28-2.38-7.67-5.71-10.18-9.99-2.51-4.28-3.77-9.08-3.77-14.42s1.26-10.13,3.77-14.38c2.51-4.25,5.91-7.57,10.18-9.95,4.28-2.38,8.98-3.58,14.11-3.58s9.83,1.19,14.11,3.58c4.28,2.38,7.64,5.7,10.11,9.95,2.46,4.25,3.69,9.04,3.69,14.38s-1.24,10.14-3.73,14.42c-2.49,4.28-5.86,7.61-10.11,9.99-4.25,2.38-8.94,3.58-14.07,3.58s-9.83-1.19-14.11-3.58ZM642.1,156.63c2.62-2.9,3.92-6.74,3.92-11.5s-1.31-8.67-3.92-11.54c-2.62-2.88-6.1-4.31-10.46-4.31s-7.92,1.43-10.53,4.28c-2.62,2.85-3.93,6.71-3.93,11.58s1.31,8.67,3.93,11.54c2.62,2.88,6.13,4.31,10.53,4.31s7.84-1.45,10.46-4.35Z"></path><path class="cls-1" d="M713.42,172.57h-13.29l-22.23-33.66v33.66h-13.29v-54.57h13.29l22.23,33.82v-33.82h13.29v54.57Z"></path><line class="cls-2" x1="356.74" y1="1.1" x2="356.74" y2="172.57"></line><g><path class="cls-1" d="M74.36,243.67c-1.77,1.71-4.48,2.57-8.12,2.57h-5.99v13.01h-4.07v-31.16h10.06c3.52,0,6.19.85,8.03,2.55s2.75,3.89,2.75,6.57-.89,4.75-2.66,6.46ZM71.26,241.42c1.07-.98,1.61-2.38,1.61-4.2,0-3.85-2.21-5.77-6.62-5.77h-5.99v11.45h5.99c2.27,0,3.93-.49,5.01-1.48Z"></path><path class="cls-1" d="M86.53,258.09c-1.86-1.04-3.32-2.53-4.38-4.45-1.06-1.92-1.59-4.15-1.59-6.68s.54-4.72,1.63-6.64c1.09-1.92,2.57-3.4,4.45-4.43s3.98-1.54,6.3-1.54,4.43.51,6.3,1.54,3.36,2.5,4.45,4.4c1.09,1.91,1.63,4.13,1.63,6.66s-.56,4.76-1.68,6.68c-1.12,1.92-2.63,3.41-4.54,4.45-1.91,1.04-4.02,1.56-6.35,1.56s-4.38-.52-6.24-1.56ZM96.88,255.05c1.28-.68,2.32-1.71,3.11-3.08.79-1.37,1.18-3.04,1.18-5.01s-.39-3.64-1.16-5.01c-.78-1.37-1.79-2.39-3.04-3.06s-2.61-1.01-4.07-1.01-2.85.33-4.09,1.01-2.23,1.69-2.97,3.06c-.75,1.37-1.12,3.04-1.12,5.01s.36,3.68,1.1,5.05c.73,1.37,1.71,2.39,2.93,3.06,1.22.67,2.56,1.01,4.02,1.01s2.83-.34,4.11-1.03Z"></path><path class="cls-1" d="M143.33,234.75l-7.65,24.5h-4.2l-5.9-19.45-5.9,19.45h-4.2l-7.69-24.5h4.16l5.63,20.57,6.08-20.57h4.16l5.95,20.61,5.54-20.61h4.02Z"></path><path class="cls-1" d="M169.58,248.53h-19.58c.15,2.41.98,4.3,2.48,5.66,1.5,1.36,3.33,2.03,5.48,2.03,1.76,0,3.23-.41,4.4-1.23,1.18-.82,2-1.92,2.48-3.29h4.38c-.66,2.36-1.97,4.27-3.93,5.75-1.97,1.48-4.41,2.21-7.33,2.21-2.33,0-4.4-.52-6.24-1.56-1.83-1.04-3.27-2.53-4.32-4.45-1.04-1.92-1.56-4.15-1.56-6.68s.51-4.75,1.52-6.66c1.01-1.91,2.44-3.38,4.27-4.4s3.94-1.54,6.33-1.54,4.38.51,6.17,1.52c1.79,1.01,3.17,2.41,4.14,4.18.97,1.77,1.45,3.78,1.45,6.01,0,.78-.04,1.6-.13,2.46ZM164.48,241.21c-.69-1.12-1.62-1.97-2.79-2.55-1.18-.58-2.48-.87-3.91-.87-2.06,0-3.81.66-5.25,1.97-1.45,1.31-2.27,3.13-2.48,5.45h15.47c0-1.55-.34-2.88-1.03-4Z"></path><path class="cls-1" d="M182.21,235.47c1.33-.77,2.94-1.16,4.85-1.16v4.2h-1.07c-4.56,0-6.84,2.47-6.84,7.42v13.32h-4.07v-24.5h4.07v3.98c.72-1.4,1.74-2.49,3.06-3.26Z"></path><path class="cls-1" d="M213.98,248.53h-19.58c.15,2.41.98,4.3,2.48,5.66,1.5,1.36,3.33,2.03,5.48,2.03,1.76,0,3.23-.41,4.4-1.23,1.18-.82,2-1.92,2.48-3.29h4.38c-.66,2.36-1.97,4.27-3.93,5.75-1.97,1.48-4.41,2.21-7.33,2.21-2.33,0-4.4-.52-6.24-1.56-1.83-1.04-3.27-2.53-4.32-4.45-1.04-1.92-1.56-4.15-1.56-6.68s.51-4.75,1.52-6.66c1.01-1.91,2.44-3.38,4.27-4.4s3.94-1.54,6.33-1.54,4.38.51,6.17,1.52c1.79,1.01,3.17,2.41,4.14,4.18.97,1.77,1.45,3.78,1.45,6.01,0,.78-.04,1.6-.13,2.46ZM208.88,241.21c-.69-1.12-1.62-1.97-2.79-2.55-1.18-.58-2.48-.87-3.91-.87-2.06,0-3.81.66-5.25,1.97-1.45,1.31-2.27,3.13-2.48,5.45h15.47c0-1.55-.34-2.88-1.03-4Z"></path><path class="cls-1" d="M219.48,240.32c1.01-1.89,2.41-3.36,4.18-4.4,1.77-1.04,3.76-1.56,5.97-1.56,1.91,0,3.68.44,5.32,1.32,1.64.88,2.89,2.03,3.76,3.47v-12.97h4.11v33.09h-4.11v-4.61c-.8,1.46-2,2.66-3.58,3.6-1.58.94-3.43,1.41-5.54,1.41s-4.15-.54-5.92-1.61-3.17-2.58-4.18-4.52c-1.01-1.94-1.52-4.14-1.52-6.62s.51-4.7,1.52-6.59ZM237.59,242.13c-.75-1.37-1.75-2.42-3.02-3.15-1.27-.73-2.66-1.09-4.18-1.09s-2.91.36-4.16,1.07c-1.25.72-2.25,1.76-3,3.13-.75,1.37-1.12,2.98-1.12,4.83s.37,3.51,1.12,4.9c.74,1.39,1.74,2.44,3,3.17s2.64,1.09,4.16,1.09,2.91-.36,4.18-1.09c1.27-.73,2.27-1.79,3.02-3.17.74-1.39,1.12-3,1.12-4.85s-.37-3.46-1.12-4.83Z"></path><path class="cls-1" d="M269.38,235.74c1.61-.92,3.44-1.39,5.5-1.39,2.21,0,4.19.52,5.95,1.56,1.76,1.04,3.14,2.51,4.16,4.4,1.01,1.89,1.52,4.09,1.52,6.59s-.51,4.68-1.52,6.62c-1.01,1.94-2.41,3.44-4.18,4.52-1.77,1.07-3.75,1.61-5.92,1.61s-3.97-.46-5.57-1.39c-1.59-.92-2.79-2.1-3.6-3.53v4.52h-4.07v-33.09h4.07v13.15c.83-1.46,2.06-2.65,3.67-3.58ZM281.23,242.09c-.75-1.37-1.75-2.41-3.02-3.13-1.27-.71-2.66-1.07-4.18-1.07s-2.87.37-4.14,1.09c-1.27.73-2.28,1.79-3.04,3.17-.76,1.39-1.14,2.99-1.14,4.81s.38,3.47,1.14,4.85c.76,1.39,1.77,2.44,3.04,3.17,1.27.73,2.65,1.09,4.14,1.09s2.91-.36,4.18-1.09c1.27-.73,2.27-1.79,3.02-3.17.74-1.39,1.12-3.02,1.12-4.9s-.37-3.46-1.12-4.83Z"></path><path class="cls-1" d="M312.97,234.75l-14.75,36.04h-4.2l4.83-11.8-9.88-24.23h4.52l7.69,19.85,7.6-19.85h4.2Z"></path></g></g></svg> 