<svg viewBox="0 0 88 68">
<path fill="white" d="M73.9 31.7c3-3.1 5.1-7.4 5.1-12.9C79 7.7 71.2 0 60 0H38.2L26.1 20.1l6.1 11.1H20.9L0 68h44.3l-18-30.8h9.1L52.3 68h15.4c4.8 0 9.5-1.4 13-3.9C84 61.8 88 57.3 88 49.2c0-11.3-8.4-16.1-14.1-17.5zM33.9 62H10.2l11.7-20.6 12 20.6zM73 18.8c0 8.1-6.3 12.4-12.6 12.4h-2.1L44.4 6H60c7.8 0 13 5.1 13 12.8zm-40.1 1.4 6.6-10.9 12.1 21.9H38.9l-6-11zM55.8 62 42.2 37.2h12.7L68.7 62H55.8zm18.9-1.4-13-23.4 9.9.1c1.6.3 10.5 2.1 10.5 11.9 0 6.7-3.7 9.9-7.4 11.4z"></path>
</svg>