<svg id="logo" xmlns="http://www.w3.org/2000/svg" xmlns:xlink="http://www.w3.org/1999/xlink" version="1.1" viewBox="0 0 1200 557.9">
  <defs>
    <linearGradient id="linear-gradient" x1="909.4" y1="253.6" x2="1169" y2="253.6" gradientTransform="translate(130.6 -264.9) rotate(45) scale(1 -1)" gradientUnits="userSpaceOnUse">
      <stop offset="0" stop-color="#29d9d9"></stop>
      <stop offset="0" stop-color="#28c3c3"></stop>
      <stop offset=".4" stop-color="#268c8c"></stop>
      <stop offset=".7" stop-color="#233435"></stop>
      <stop offset=".8" stop-color="#231f20"></stop>
      <stop offset=".9" stop-color="#fff"></stop>
    </linearGradient>
  </defs>
  <g id="Layer_1-2" data-name="Layer 1">
    <g style="isolation: isolate;">
      <text transform="translate(1186.4 370.7)" style="fill: #262e40; font-family: Montserrat-SemiBold, Montserrat; font-size: 410.5px; font-weight: 600; isolation: isolate;"><tspan x="0" y="0">DSG</tspan></text>
    </g>
  </g>
  <g id="Layer_2" data-name="Layer 2">
    <g>
      <rect x="887.9" y="248.3" width="341" height="111.9" rx="55.9" ry="55.9" transform="translate(94.8 837.6) rotate(-45)" style="fill: url(#linear-gradient); stroke-width: 0px;"></rect>
      <path d="M1180.8,263.9l-107.7,104.8c8.5-17,48.2-82.2,14.2-124.7l-148.5-145.7c-21.6-21.6-21.6-56.7,0-78.4l.7-.7c21.6-21.6,56.7-21.6,78.4,0l162.7,162.7c21.6,21.6,21.9,60.3.2,81.9h0Z" style="fill: #29d9d9; fill-rule: evenodd; stroke-width: 0px;"></path>
    </g>
    <path d="M85.4,446.5v67.7c0,27.6-14,40.2-40.7,40.2s-28.8-4-37.4-11.7l6.8-10.9c7.2,6.2,18.6,10.2,30.2,10.2,18.5,0,26.9-8.6,26.9-26.3v-6.2c-6.8,8.1-17,12.1-28.2,12.1-22.6,0-39.8-15.4-39.8-38s17.1-37.8,39.8-37.8,22.3,4.3,29,12.9v-12.1h13.5,0ZM71.5,483.6c0-15.2-11.2-25.4-26.9-25.4s-27.1,10.2-27.1,25.4,11.2,25.6,27.1,25.6,26.9-10.5,26.9-25.6Z" style="fill: #fff; stroke-width: 0px;"></path>
    <path d="M154.6,445.7v13.7c-1.2-.1-2.2-.1-3.3-.1-15.2,0-24.7,9.3-24.7,26.5v39h-14.2v-78.4h13.6v13.2c5-9.2,14.8-13.9,28.5-13.9h.1Z" style="fill: #fff; stroke-width: 0px;"></path>
    <path d="M164.1,485.7c0-23.4,17.3-39.9,40.8-39.9s40.7,16.6,40.7,39.9-17.1,40.1-40.7,40.1-40.8-16.7-40.8-40.1h0ZM231.2,485.7c0-16.7-11.2-27.5-26.3-27.5s-26.5,10.8-26.5,27.5,11.4,27.6,26.5,27.6,26.3-10.9,26.3-27.6h0Z" style="fill: #fff; stroke-width: 0px;"></path>
    <path d="M338.3,446.5v78.4h-13.5v-11.8c-5.8,8.1-15.5,12.7-26.6,12.7-20.3,0-33.7-11.1-33.7-34.2v-45.1h14.2v43.5c0,15.4,7.7,23.1,21.1,23.1s24.2-9.2,24.2-26v-40.5h14.3Z" style="fill: #fff; stroke-width: 0px;"></path>
    <path d="M446.5,485.7c0,24.1-16.7,40.1-39.6,40.1s-20.8-4.3-27.4-12.7v40.5h-14.2v-107h13.6v12.4c6.4-8.7,16.4-13.2,27.9-13.2,22.9,0,39.6,16,39.6,39.9h.1ZM432.1,485.7c0-16.6-11.4-27.5-26.5-27.5s-26.3,10.9-26.3,27.5,11.4,27.6,26.3,27.6,26.5-10.9,26.5-27.6h0Z" style="fill: #fff; stroke-width: 0px;"></path>
    <path d="M3.5,81.9h125.6c23.3,0,44.7,3.6,63.8,10.3s35.8,16.6,49.5,29.2,24.6,27.8,32.1,45.3,11.4,37.3,11.4,58.8-4,41.3-11.4,58.8-18.3,32.8-32.1,45.3-30.5,22.4-49.5,29.2-40.5,10.3-63.8,10.3H3.5V81.9ZM126.6,324.1c16,0,30.6-2.4,43.5-7s24.1-11.3,33.3-19.9,16.4-19,21.3-31.1,7.5-25.6,7.5-40.5-2.6-28.5-7.5-40.5-12.1-22.5-21.3-31.1-20.4-15.3-33.3-19.9-27.5-7-43.5-7H56.8v197s69.8,0,69.8,0Z" style="fill: #fff; stroke-width: 0px;"></path>
    <path d="M318.3,338.9l4.6-10.4,4.6-10.4,4.6-10.4,4.6-10.4c5.7,4.6,12.3,8.9,19.5,12.7s15,7.2,23.2,10,16.8,5,25.6,6.5,17.7,2.3,26.5,2.3,20.8-1,28.8-2.8,14.6-4.5,19.8-7.8,8.9-7.3,11.4-11.8,3.6-9.5,3.6-14.8c0-15.5-10.7-24.6-26.7-31.2s-37.4-10.6-58.7-16.1-42.7-12.3-58.7-24.5-26.7-29.6-26.7-56.3,2.3-22.8,7-33,11.8-19.5,21.3-27.3,21.6-14.2,36.1-18.6,31.6-6.9,51.3-6.9,17.3.6,26,1.7,17.2,2.7,25.4,4.9,16.2,4.8,23.6,8c7.4,3.2,14.4,6.8,20.7,10.9l-4.2,10.4-4.2,10.4-4.2,10.4-4.2,10.4c-6.5-3.8-13.1-7.1-19.8-9.9s-13.4-5.2-20.2-7-13.4-3.3-20-4.2-13-1.4-19.3-1.4c-11.1,0-20.5,1.1-28.5,3s-14.3,4.8-19.4,8.3-8.7,7.7-11.1,12.4-3.5,9.8-3.5,15.3c0,15.3,10.6,24.3,26.6,30.8s37.3,10.6,58.6,16,42.6,12.3,58.6,24.3c16,12,26.6,29.4,26.6,55.7s-2.3,22.6-7.1,32.7-11.9,19.4-21.5,27.2-21.7,14.2-36.2,18.6-31.7,6.9-51.4,6.9-22.4-.9-33.2-2.5-21.4-4-31.3-7-19.1-6.7-27.3-10.9-15.5-8.9-21.5-14l.3-.2Z" style="fill: #fff; stroke-width: 0px;"></path>
    <path d="M796.9,222.3h50.5v114.5c-7.5,6.1-15.7,11.4-24.5,15.9s-18.1,8.4-27.7,11.4-19.6,5.3-29.7,6.9-20.3,2.3-30.5,2.3c-22.3,0-43.1-3.9-61.8-11s-35.2-17.6-49-30.7-24.8-28.9-32.3-46.8-11.7-37.8-11.7-59.3,4.1-41.4,11.7-59.3,18.6-33.7,32.4-46.8,30.5-23.5,49.3-30.7,39.8-11,62.2-11,23.5,1,34.5,3,21.3,4.9,31,8.9,18.8,8.8,27.1,14.6,15.9,12.6,22.7,20.3l-8.4,8.2-8.4,8.2-8.4,8.2-8.4,8.2c-5.6-5.6-11.5-10.5-17.6-14.7s-12.4-7.5-19-10.2-13.4-4.7-20.5-6-14.5-2-22.2-2c-15.3,0-29.5,2.6-42.1,7.4-12.6,4.8-23.8,11.9-33,20.8s-16.5,19.7-21.5,31.9-7.7,26-7.7,40.9,2.7,28.2,7.7,40.4c5,12.2,12.3,23,21.5,32s20.3,16.1,32.9,21.1,26.7,7.6,41.9,7.6,10.2-.3,15.3-.8,10.1-1.4,15-2.6,9.8-2.7,14.6-4.6,9.5-4.1,14.1-6.8v-89.5h0Z" style="fill: #fff; stroke-width: 0px;"></path>
  </g>
</svg>