<svg width="59" viewBox="0 0 59 20" fill="none" xmlns="http://www.w3.org/2000/svg">
<path d="M14.3202 10.0137H7.72761C7.46694 10.0137 7.40742 10.1361 7.40742 10.2542C7.40742 10.345 7.46489 10.4336 7.52236 10.4652L17.8772 17.3605L16.2454 20L6.5618 13.4339C5.33852 12.5942 4.40258 11.8156 4.40258 10.1952C4.40258 8.36586 5.68744 7.10624 8.02112 7.10624H14.2915C15.2541 7.10624 15.2541 6.29813 15.2541 5.99641V3.98776C15.2541 3.68815 15.2541 2.87794 14.2915 2.87794H3.96746C3.00484 2.87794 3.00484 3.68815 3.00484 3.98776V20H0V4.13546C0 0.957907 2.27621 0 3.96746 0H14.3797C16.071 0 18.2014 0.810212 18.2014 3.98776V5.96687C18.1994 9.14653 16.0135 10.0137 14.3202 10.0137ZM34.0713 20H23.776C22.0827 20 19.8681 19.1012 19.8681 15.9215V11.094C19.8681 7.91645 22.1443 6.95643 23.8355 6.95643H34.9477V4.13546C34.9477 3.83796 34.9477 3.02775 33.9871 3.02775H21.3561V0H34.1041C35.7974 0 38.012 0.898829 38.012 4.07638V15.8899C38.012 19.0695 35.7646 20 34.0713 20ZM34.9456 9.95464H23.8047C22.8421 9.95464 22.8421 10.7627 22.8421 11.0645V15.892C22.8421 16.1916 22.8421 16.9997 23.8047 16.9997H33.9851C34.9456 16.9997 34.9456 16.1916 34.9456 15.892V9.95464ZM44.4712 20C42.78 20 40.5633 19.1012 40.5633 15.9215V4.13546C40.5633 0.960017 42.8354 0 44.5307 0H58.1818V3.02775H44.6477C43.6851 3.02775 43.6851 3.83796 43.6851 4.13546V15.8603C43.6851 16.1599 43.6851 16.9701 44.6477 16.9701H58.1818V20H44.4712Z" fill="#ffffff"></path>
</svg>